<svg width="32" height="33" viewBox="0 0 32 33" fill="none" xmlns="http://www.w3.org/2000/svg">
<path d="M12.884 22.7855C14.307 22.8308 15.7251 22.6041 17.0545 22.1186C18.3839 21.6331 19.5976 20.8987 20.6239 19.9589C21.6502 19.019 22.4683 17.8928 23.0298 16.6467C23.5913 15.4007 23.8849 14.06 23.8931 12.7041C24.5452 11.9355 25.0294 11.0506 25.3173 10.1013C25.3388 10.0263 25.3371 9.94694 25.3123 9.87285C25.2876 9.79876 25.2408 9.73307 25.1778 9.68368C25.1148 9.63429 25.0381 9.60331 24.957 9.59447C24.8759 9.58563 24.7938 9.59931 24.7207 9.63385C24.3795 9.79026 23.9954 9.84078 23.6225 9.7783C23.2496 9.71582 22.9067 9.54349 22.642 9.28559C22.3042 8.93327 21.8956 8.64911 21.4403 8.44996C20.9851 8.2508 20.4925 8.14069 19.9917 8.12617C19.491 8.11164 18.9923 8.19298 18.5251 8.36537C18.058 8.53777 17.632 8.7977 17.2722 9.12978C16.7797 9.58405 16.419 10.1519 16.2251 10.7783C16.0311 11.4046 16.0106 12.068 16.1656 12.7041C12.9418 12.8874 10.7284 11.4302 8.95774 9.43223C8.90455 9.37485 8.83496 9.33348 8.75749 9.31315C8.68001 9.29281 8.59799 9.29441 8.52145 9.31774C8.44491 9.34106 8.37715 9.38511 8.32646 9.4445C8.27577 9.5039 8.24434 9.57606 8.236 9.65218C7.89867 11.4342 8.14201 13.2719 8.93332 14.9184C9.72463 16.5649 11.026 17.9414 12.6627 18.8629C11.5653 20.0615 10.0242 20.8102 8.3611 20.9525C8.272 20.9666 8.18975 21.0068 8.12586 21.0676C8.06197 21.1284 8.01964 21.2067 8.00479 21.2916C7.98995 21.3764 8.00332 21.4636 8.04306 21.5408C8.08279 21.6181 8.14688 21.6815 8.22638 21.7224C9.67325 22.411 11.2666 22.7747 12.884 22.7855Z" fill="#338B12"/>
</svg>
