<svg width="32" height="33" viewBox="0 0 32 33" fill="none" xmlns="http://www.w3.org/2000/svg">
<path d="M28.7896 9.7286C28.6377 9.16514 28.3409 8.65128 27.9287 8.23816C27.5166 7.82504 27.0034 7.52708 26.4402 7.37394C24.3522 6.8006 15.9989 6.79127 15.9989 6.79127C15.9989 6.79127 7.64691 6.78194 5.55758 7.32994C4.99481 7.49013 4.48268 7.79231 4.07033 8.20745C3.65799 8.62259 3.35929 9.13676 3.20291 9.7006C2.65225 11.7886 2.64691 16.1193 2.64691 16.1193C2.64691 16.1193 2.64158 20.4713 3.18825 22.5379C3.49491 23.6806 4.39491 24.5833 5.53891 24.8913C7.64825 25.4646 15.9789 25.4739 15.9789 25.4739C15.9789 25.4739 24.3322 25.4833 26.4202 24.9366C26.9836 24.7837 27.4972 24.4865 27.9104 24.0742C28.3237 23.6619 28.6221 23.1489 28.7762 22.5859C29.3282 20.4993 29.3322 16.1699 29.3322 16.1699C29.3322 16.1699 29.3589 11.8166 28.7896 9.7286ZM13.3269 20.1313L13.3336 12.1313L20.2762 16.1379L13.3269 20.1313Z" fill="#338B12"/>
</svg>
